<svg width="24" height="24" viewBox="0 0 24 24" fill="none" xmlns="http://www.w3.org/2000/svg">
<path d="M6.6908 14.1646L6.49789 14.6259L6.69078 14.1646L6.69073 14.1646L6.69054 14.1645L6.68977 14.1642L6.68675 14.1629L6.67497 14.158L6.63026 14.1393L6.47041 14.0725L5.98288 13.8689C5.80481 13.7946 5.62536 13.7199 5.48807 13.6629L5.4662 13.6538C5.38377 13.6196 5.30181 13.5856 5.25259 13.5661C4.57874 13.2624 4.00161 12.7787 3.58472 12.1682C3.16632 11.5556 2.92564 10.839 2.88932 10.098C2.85403 9.33824 3.0361 8.58414 3.41418 7.92416C3.79236 7.264 4.35096 6.72539 5.02446 6.37151L5.02602 6.37068L15.2248 0.96581C15.2248 0.965792 15.2248 0.965774 15.2249 0.965755C15.2249 0.965731 15.225 0.965707 15.225 0.965683C16.1639 0.468862 17.2616 0.365262 18.2769 0.677671C19.2922 0.990108 20.1419 1.69304 20.639 2.63187L20.6398 2.6333C20.8871 3.09671 21.0402 3.60449 21.0903 4.12737C21.1405 4.65025 21.0866 5.17787 20.9318 5.67983C20.7771 6.18179 20.5245 6.64814 20.1886 7.05201C19.8527 7.45587 19.4403 7.78926 18.9749 8.03294L18.9721 8.03442L17.2551 8.94742L16.3221 9.44357L17.2974 9.85036L18.7326 10.4489C19.4093 10.7521 19.99 11.236 20.4091 11.847C20.8295 12.4599 21.0722 13.1769 21.1105 13.9191C21.1477 14.6776 20.9676 15.4309 20.5915 16.0906C20.2153 16.7505 19.6585 17.2893 18.9866 17.6436L18.9859 17.644L8.77941 23.0482C8.77885 23.0485 8.7783 23.0488 8.77774 23.049C8.20676 23.3453 7.57491 23.4997 6.93127 23.4999C5.8701 23.4942 4.85398 23.0702 4.1035 22.3199C3.3531 21.5697 2.92888 20.5538 2.92289 19.4927C2.92354 18.77 3.1195 18.0608 3.49006 17.4403C3.8605 16.82 4.39164 16.3113 5.02733 15.968L6.73139 15.068L7.66809 14.5733L6.6908 14.1646ZM9.09689 15.1899V16.0206L9.83094 15.6317L15.8379 12.4497L16.6718 12.008L15.838 11.5661L9.83105 8.38211L9.09689 7.99297V8.82389V15.1899Z" fill="white" stroke="black"/>
</svg>
