<svg width="48" height="48" viewBox="0 0 48 48" fill="none" xmlns="http://www.w3.org/2000/svg">
<path fill-rule="evenodd" clip-rule="evenodd" d="M39 8H9C8.73478 8 8.48043 8.10536 8.29289 8.29289C8.10536 8.48043 8 8.73478 8 9V39C8 39.2652 8.10536 39.5196 8.29289 39.7071C8.48043 39.8946 8.73478 40 9 40H39C39.2652 40 39.5196 39.8946 39.7071 39.7071C39.8946 39.5196 40 39.2652 40 39V9C40 8.73478 39.8946 8.48043 39.7071 8.29289C39.5196 8.10536 39.2652 8 39 8ZM9 6C8.20435 6 7.44129 6.31607 6.87868 6.87868C6.31607 7.44129 6 8.20435 6 9V39C6 39.7956 6.31607 40.5587 6.87868 41.1213C7.44129 41.6839 8.20435 42 9 42H39C39.7956 42 40.5587 41.6839 41.1213 41.1213C41.6839 40.5587 42 39.7956 42 39V9C42 8.20435 41.6839 7.44129 41.1213 6.87868C40.5587 6.31607 39.7956 6 39 6H9Z" fill="black"/>
<path d="M19 20C19 20.7956 18.6839 21.5587 18.1213 22.1213C17.5587 22.6839 16.7956 23 16 23C15.2044 23 14.4413 22.6839 13.8787 22.1213C13.3161 21.5587 13 20.7956 13 20C13 19.2044 13.3161 18.4413 13.8787 17.8787C14.4413 17.3161 15.2044 17 16 17C16.7956 17 17.5587 17.3161 18.1213 17.8787C18.6839 18.4413 19 19.2044 19 20Z" fill="black"/>
<path fill-rule="evenodd" clip-rule="evenodd" d="M12.256 27.24C12.046 27.451 12 27.609 12 27.727V31H10V27.727C10 26.939 10.37 26.302 10.837 25.831C11.296 25.37 11.887 25.024 12.474 24.767C13.642 24.257 15.028 24 16 24C16.971 24 18.358 24.257 19.526 24.767C20.113 25.024 20.704 25.37 21.163 25.831C21.631 26.302 22 26.939 22 27.727V31H20V27.727C20 27.609 19.953 27.451 19.744 27.241C19.526 27.021 19.18 26.799 18.725 26.6C17.811 26.2 16.697 26 16 26C15.303 26 14.19 26.2 13.275 26.6C12.82 26.798 12.475 27.02 12.256 27.24ZM28.256 27.24C28.046 27.451 28 27.609 28 27.727V31H26V27.727C26 26.939 26.37 26.302 26.837 25.831C27.296 25.37 27.887 25.024 28.474 24.767C29.642 24.257 31.029 24 32 24C32.971 24 34.358 24.257 35.526 24.767C36.113 25.024 36.704 25.37 37.163 25.831C37.631 26.302 38 26.939 38 27.727V31H36V27.727C36 27.609 35.953 27.451 35.744 27.241C35.526 27.021 35.18 26.799 34.725 26.6C33.811 26.2 32.697 26 32 26C31.303 26 30.19 26.2 29.275 26.6C28.82 26.798 28.475 27.02 28.256 27.24Z" fill="black"/>
<path d="M35 20C35 20.7956 34.6839 21.5587 34.1213 22.1213C33.5587 22.6839 32.7956 23 32 23C31.2044 23 30.4413 22.6839 29.8787 22.1213C29.3161 21.5587 29 20.7956 29 20C29 19.2044 29.3161 18.4413 29.8787 17.8787C30.4413 17.3161 31.2044 17 32 17C32.7956 17 33.5587 17.3161 34.1213 17.8787C34.6839 18.4413 35 19.2044 35 20ZM27 18C27 18.7956 26.6839 19.5587 26.1213 20.1213C25.5587 20.6839 24.7956 21 24 21C23.2044 21 22.4413 20.6839 21.8787 20.1213C21.3161 19.5587 21 18.7956 21 18C21 17.2044 21.3161 16.4413 21.8787 15.8787C22.4413 15.3161 23.2044 15 24 15C24.7956 15 25.5587 15.3161 26.1213 15.8787C26.6839 16.4413 27 17.2044 27 18Z" fill="black"/>
<path fill-rule="evenodd" clip-rule="evenodd" d="M22.6969 24.9949C22.4139 25.0229 22.3169 25.0869 22.2459 25.1659L20.7539 23.8339C21.2789 23.2459 21.9339 23.0599 22.5029 23.0039C22.8459 22.9709 23.2719 22.9829 23.6209 22.9919C23.7639 22.9959 23.8939 22.9999 23.9999 22.9999C24.1059 22.9999 24.2359 22.9959 24.3789 22.9919C24.7279 22.9819 25.1539 22.9719 25.4969 23.0049C26.0669 23.0599 26.7209 23.2459 27.2459 23.8339L25.7539 25.1659C25.6839 25.0869 25.5859 25.0229 25.3029 24.9959C25.1186 24.9817 24.9337 24.9777 24.7489 24.9839L24.5469 24.9889C24.3769 24.9939 24.1839 24.9999 23.9999 24.9999C23.8159 24.9999 23.6229 24.9939 23.4529 24.9899L23.2509 24.9839C23.0662 24.9774 22.8812 24.981 22.6969 24.9949Z" fill="black"/>
</svg>
